<svg data-v-fde0c5aa="" xmlns="http://www.w3.org/2000/svg" viewBox="0 0 300 300" class="iconAbove"><!----><defs data-v-fde0c5aa=""><!----></defs><rect data-v-fde0c5aa="" fill="transparent" x="0" y="0" width="300px" height="300px" class="logo-background-square"></rect><defs data-v-fde0c5aa=""><!----></defs><g data-v-fde0c5aa="" id="d53c7fb1-4f9d-49e7-9d44-842ad10ac4f8" fill="#000000" transform="matrix(3.0338388111107126,0,0,3.0338388111107126,17.330221860689043,166.90315016080928)"><path d="M3.58 5.08L3.58 5.08Q4.20 5.08 4.56 5.21L4.56 5.21L4.56 5.21Q4.91 5.35 5.29 5.60L5.29 5.60L5.29 5.60Q5.60 5.80 5.77 5.80L5.77 5.80L5.77 5.80Q5.89 5.80 5.96 5.65L5.96 5.65L5.96 5.65Q6.03 5.50 6.08 5.18L6.08 5.18L6.40 5.18L6.40 5.18Q6.33 5.99 6.33 8.04L6.33 8.04L6.01 8.04L6.01 8.04Q5.92 6.90 5.36 6.13L5.36 6.13L5.36 6.13Q4.79 5.35 3.71 5.35L3.71 5.35L3.71 5.35Q2.95 5.35 2.48 5.80L2.48 5.80L2.48 5.80Q2.00 6.26 2.00 6.97L2.00 6.97L2.00 6.97Q2.00 7.50 2.25 7.90L2.25 7.90L2.25 7.90Q2.49 8.29 2.87 8.57L2.87 8.57L2.87 8.57Q3.25 8.85 3.95 9.28L3.95 9.28L4.35 9.53L4.35 9.53Q5.24 10.08 5.75 10.49L5.75 10.49L5.75 10.49Q6.26 10.91 6.57 11.44L6.57 11.44L6.57 11.44Q6.87 11.97 6.87 12.68L6.87 12.68L6.87 12.68Q6.87 13.96 6.03 14.65L6.03 14.65L6.03 14.65Q5.19 15.34 3.91 15.34L3.91 15.34L3.91 15.34Q3.23 15.34 2.81 15.20L2.81 15.20L2.81 15.20Q2.38 15.06 1.99 14.83L1.99 14.83L1.99 14.83Q1.68 14.63 1.51 14.63L1.51 14.63L1.51 14.63Q1.39 14.63 1.32 14.78L1.32 14.78L1.32 14.78Q1.25 14.92 1.20 15.25L1.20 15.25L0.88 15.25L0.88 15.25Q0.94 14.48 0.94 11.89L0.94 11.89L1.26 11.89L1.26 11.89Q1.36 13.30 1.96 14.18L1.96 14.18L1.96 14.18Q2.56 15.06 3.81 15.06L3.81 15.06L3.81 15.06Q4.56 15.06 5.10 14.59L5.10 14.59L5.10 14.59Q5.63 14.13 5.63 13.20L5.63 13.20L5.63 13.20Q5.63 12.42 5.10 11.87L5.10 11.87L5.10 11.87Q4.58 11.33 3.44 10.64L3.44 10.64L3.44 10.64Q2.62 10.14 2.11 9.74L2.11 9.74L2.11 9.74Q1.60 9.35 1.27 8.80L1.27 8.80L1.27 8.80Q0.95 8.25 0.95 7.50L0.95 7.50L0.95 7.50Q0.95 6.33 1.71 5.71L1.71 5.71L1.71 5.71Q2.46 5.08 3.58 5.08L3.58 5.08ZM9.84 15.25L9.84 15.25Q8.96 15.25 8.53 14.80L8.53 14.80L8.53 14.80Q8.11 14.36 8.11 13.58L8.11 13.58L8.11 13.58Q8.11 12.95 8.45 12.54L8.45 12.54L8.45 12.54Q8.79 12.14 9.26 11.90L9.26 11.90L9.26 11.90Q9.73 11.66 10.50 11.40L10.50 11.40L10.50 11.40Q11.28 11.13 11.66 10.91L11.66 10.91L11.66 10.91Q12.04 10.68 12.04 10.30L12.04 10.30L12.04 9.44L12.04 9.44Q12.04 8.62 11.70 8.32L11.70 8.32L11.70 8.32Q11.35 8.02 10.74 8.02L10.74 8.02L10.74 8.02Q9.76 8.02 9.35 8.53L9.35 8.53L9.35 8.53Q9.63 8.60 9.82 8.82L9.82 8.82L9.82 8.82Q10.01 9.04 10.01 9.38L10.01 9.38L10.01 9.38Q10.01 9.73 9.79 9.93L9.79 9.93L9.79 9.93Q9.56 10.14 9.21 10.14L9.21 10.14L9.21 10.14Q8.82 10.14 8.62 9.89L8.62 9.89L8.62 9.89Q8.43 9.65 8.43 9.30L8.43 9.30L8.43 9.30Q8.43 8.96 8.59 8.74L8.59 8.74L8.59 8.74Q8.75 8.51 9.07 8.29L9.07 8.29L9.07 8.29Q9.41 8.05 9.93 7.90L9.93 7.90L9.93 7.90Q10.44 7.74 11.06 7.74L11.06 7.74L11.06 7.74Q12.15 7.74 12.71 8.26L12.71 8.26L12.71 8.26Q13.06 8.58 13.18 9.04L13.18 9.04L13.18 9.04Q13.30 9.49 13.30 10.23L13.30 10.23L13.30 14.13L13.30 14.13Q13.30 14.48 13.40 14.63L13.40 14.63L13.40 14.63Q13.50 14.78 13.73 14.78L13.73 14.78L13.73 14.78Q13.90 14.78 14.05 14.71L14.05 14.71L14.05 14.71Q14.20 14.63 14.36 14.49L14.36 14.49L14.52 14.73L14.52 14.73Q14.15 15.01 13.89 15.13L13.89 15.13L13.89 15.13Q13.64 15.25 13.24 15.25L13.24 15.25L13.24 15.25Q12.57 15.25 12.31 14.91L12.31 14.91L12.31 14.91Q12.04 14.57 12.04 14L12.04 14L12.04 14Q11.62 14.70 11.07 14.97L11.07 14.97L11.07 14.97Q10.53 15.25 9.84 15.25L9.84 15.25ZM10.46 14.69L10.46 14.69Q11.38 14.69 12.04 13.62L12.04 13.62L12.04 10.88L12.04 10.88Q11.91 11.07 11.69 11.20L11.69 11.20L11.69 11.20Q11.47 11.33 11.00 11.54L11.00 11.54L11.00 11.54Q10.47 11.76 10.14 11.96L10.14 11.96L10.14 11.96Q9.81 12.17 9.58 12.52L9.58 12.52L9.58 12.52Q9.34 12.87 9.34 13.41L9.34 13.41L9.34 13.41Q9.34 14.04 9.65 14.36L9.65 14.36L9.65 14.36Q9.95 14.69 10.46 14.69L10.46 14.69ZM19.64 7.74L19.64 7.74Q20.62 7.74 21.13 8.27L21.13 8.27L21.13 8.27Q21.39 8.55 21.50 8.97L21.50 8.97L21.50 8.97Q21.62 9.39 21.62 10.11L21.62 10.11L21.62 13.85L21.62 13.85Q21.62 14.42 21.85 14.64L21.85 14.64L21.85 14.64Q22.09 14.85 22.68 14.85L22.68 14.85L22.68 15.15L22.68 15.15Q21.39 15.09 21 15.09L21 15.09L21 15.09Q20.61 15.09 19.43 15.15L19.43 15.15L19.43 14.85L19.43 14.85Q19.95 14.85 20.15 14.64L20.15 14.64L20.15 14.64Q20.36 14.42 20.36 13.85L20.36 13.85L20.36 9.80L20.36 9.80Q20.36 9.02 20.13 8.60L20.13 8.60L20.13 8.60Q19.91 8.19 19.22 8.19L19.22 8.19L19.22 8.19Q18.65 8.19 18.20 8.53L18.20 8.53L18.20 8.53Q17.75 8.86 17.51 9.44L17.51 9.44L17.51 9.44Q17.26 10.02 17.26 10.74L17.26 10.74L17.26 13.85L17.26 13.85Q17.26 14.42 17.46 14.64L17.46 14.64L17.46 14.64Q17.67 14.85 18.19 14.85L18.19 14.85L18.19 15.15L18.19 15.15Q17.01 15.09 16.62 15.09L16.62 15.09L16.62 15.09Q16.23 15.09 14.94 15.15L14.94 15.15L14.94 14.85L14.94 14.85Q15.53 14.85 15.76 14.64L15.76 14.64L15.76 14.64Q16.00 14.42 16.00 13.85L16.00 13.85L16.00 9.46L16.00 9.46Q16.00 8.82 15.76 8.53L15.76 8.53L15.76 8.53Q15.53 8.23 14.94 8.23L14.94 8.23L14.94 7.94L14.94 7.94Q15.39 7.98 15.81 7.98L15.81 7.98L15.81 7.98Q16.69 7.98 17.26 7.78L17.26 7.78L17.26 9.44L17.26 9.44Q17.61 8.54 18.23 8.14L18.23 8.14L18.23 8.14Q18.86 7.74 19.64 7.74L19.64 7.74ZM22.53 17.78L22.53 17.57L22.53 17.57Q23.38 17.53 23.82 16.83L23.82 16.83L23.82 16.83Q24.26 16.13 24.26 14.88L24.26 14.88L24.26 9.46L24.26 9.46Q24.26 8.82 24.02 8.53L24.02 8.53L24.02 8.53Q23.79 8.23 23.20 8.23L23.20 8.23L23.20 7.94L23.20 7.94Q23.63 7.98 24.07 7.98L24.07 7.98L24.07 7.98Q24.95 7.98 25.52 7.78L25.52 7.78L25.52 13.54L25.52 13.54Q25.52 15.86 24.51 16.93L24.51 16.93L24.51 16.93Q24.14 17.32 23.63 17.55L23.63 17.55L23.63 17.55Q23.11 17.78 22.53 17.78L22.53 17.78ZM24.77 4.44L24.77 4.44Q25.13 4.44 25.40 4.70L25.40 4.70L25.40 4.70Q25.66 4.97 25.66 5.33L25.66 5.33L25.66 5.33Q25.66 5.70 25.40 5.96L25.40 5.96L25.40 5.96Q25.13 6.23 24.77 6.23L24.77 6.23L24.77 6.23Q24.40 6.23 24.14 5.96L24.14 5.96L24.14 5.96Q23.87 5.70 23.87 5.33L23.87 5.33L23.87 5.33Q23.87 4.97 24.14 4.70L24.14 4.70L24.14 4.70Q24.40 4.44 24.77 4.44L24.77 4.44ZM28.91 15.25L28.91 15.25Q28.03 15.25 27.60 14.80L27.60 14.80L27.60 14.80Q27.17 14.36 27.17 13.58L27.17 13.58L27.17 13.58Q27.17 12.95 27.52 12.54L27.52 12.54L27.52 12.54Q27.86 12.14 28.33 11.90L28.33 11.90L28.33 11.90Q28.80 11.66 29.57 11.40L29.57 11.40L29.57 11.40Q30.35 11.13 30.73 10.91L30.73 10.91L30.73 10.91Q31.11 10.68 31.11 10.30L31.11 10.30L31.11 9.44L31.11 9.44Q31.11 8.62 30.77 8.32L30.77 8.32L30.77 8.32Q30.42 8.02 29.81 8.02L29.81 8.02L29.81 8.02Q28.83 8.02 28.42 8.53L28.42 8.53L28.42 8.53Q28.70 8.60 28.89 8.82L28.89 8.82L28.89 8.82Q29.08 9.04 29.08 9.38L29.08 9.38L29.08 9.38Q29.08 9.73 28.85 9.93L28.85 9.93L28.85 9.93Q28.63 10.14 28.28 10.14L28.28 10.14L28.28 10.14Q27.89 10.14 27.69 9.89L27.69 9.89L27.69 9.89Q27.50 9.65 27.50 9.30L27.50 9.30L27.50 9.30Q27.50 8.96 27.66 8.74L27.66 8.74L27.66 8.74Q27.82 8.51 28.14 8.29L28.14 8.29L28.14 8.29Q28.48 8.05 28.99 7.90L28.99 7.90L28.99 7.90Q29.51 7.74 30.13 7.74L30.13 7.74L30.13 7.74Q31.22 7.74 31.78 8.26L31.78 8.26L31.78 8.26Q32.13 8.58 32.25 9.04L32.25 9.04L32.25 9.04Q32.37 9.49 32.37 10.23L32.37 10.23L32.37 14.13L32.37 14.13Q32.37 14.48 32.47 14.63L32.47 14.63L32.47 14.63Q32.56 14.78 32.80 14.78L32.80 14.78L32.80 14.78Q32.97 14.78 33.12 14.71L33.12 14.71L33.12 14.71Q33.26 14.63 33.43 14.49L33.43 14.49L33.59 14.73L33.59 14.73Q33.22 15.01 32.96 15.13L32.96 15.13L32.96 15.13Q32.70 15.25 32.31 15.25L32.31 15.25L32.31 15.25Q31.64 15.25 31.37 14.91L31.37 14.91L31.37 14.91Q31.11 14.57 31.11 14L31.11 14L31.11 14Q30.69 14.70 30.14 14.97L30.14 14.97L30.14 14.97Q29.60 15.25 28.91 15.25L28.91 15.25ZM29.53 14.69L29.53 14.69Q30.45 14.69 31.11 13.62L31.11 13.62L31.11 10.88L31.11 10.88Q30.98 11.07 30.76 11.20L30.76 11.20L30.76 11.20Q30.53 11.33 30.07 11.54L30.07 11.54L30.07 11.54Q29.54 11.76 29.21 11.96L29.21 11.96L29.21 11.96Q28.88 12.17 28.64 12.52L28.64 12.52L28.64 12.52Q28.41 12.87 28.41 13.41L28.41 13.41L28.41 13.41Q28.41 14.04 28.71 14.36L28.71 14.36L28.71 14.36Q29.02 14.69 29.53 14.69L29.53 14.69ZM38.71 7.74L38.71 7.74Q39.69 7.74 40.19 8.27L40.19 8.27L40.19 8.27Q40.46 8.55 40.57 8.97L40.57 8.97L40.57 8.97Q40.68 9.39 40.68 10.11L40.68 10.11L40.68 13.85L40.68 13.85Q40.68 14.42 40.92 14.64L40.92 14.64L40.92 14.64Q41.16 14.85 41.75 14.85L41.75 14.85L41.75 15.15L41.75 15.15Q40.46 15.09 40.07 15.09L40.07 15.09L40.07 15.09Q39.68 15.09 38.50 15.15L38.50 15.15L38.50 14.85L38.50 14.85Q39.02 14.85 39.22 14.64L39.22 14.64L39.22 14.64Q39.42 14.42 39.42 13.85L39.42 13.85L39.42 9.80L39.42 9.80Q39.42 9.02 39.20 8.60L39.20 8.60L39.20 8.60Q38.98 8.19 38.29 8.19L38.29 8.19L38.29 8.19Q37.72 8.19 37.27 8.53L37.27 8.53L37.27 8.53Q36.82 8.86 36.58 9.44L36.58 9.44L36.58 9.44Q36.33 10.02 36.33 10.74L36.33 10.74L36.33 13.85L36.33 13.85Q36.33 14.42 36.53 14.64L36.53 14.64L36.53 14.64Q36.74 14.85 37.25 14.85L37.25 14.85L37.25 15.15L37.25 15.15Q36.08 15.09 35.69 15.09L35.69 15.09L35.69 15.09Q35.29 15.09 34.01 15.15L34.01 15.15L34.01 14.85L34.01 14.85Q34.59 14.85 34.83 14.64L34.83 14.64L34.83 14.64Q35.07 14.42 35.07 13.85L35.07 13.85L35.07 9.46L35.07 9.46Q35.07 8.82 34.83 8.53L34.83 8.53L34.83 8.53Q34.59 8.23 34.01 8.23L34.01 8.23L34.01 7.94L34.01 7.94Q34.45 7.98 34.87 7.98L34.87 7.98L34.87 7.98Q35.76 7.98 36.33 7.78L36.33 7.78L36.33 9.44L36.33 9.44Q36.68 8.54 37.30 8.14L37.30 8.14L37.30 8.14Q37.93 7.74 38.71 7.74L38.71 7.74ZM44.24 15.25L44.24 15.25Q43.36 15.25 42.93 14.80L42.93 14.80L42.93 14.80Q42.50 14.36 42.50 13.58L42.50 13.58L42.50 13.58Q42.50 12.95 42.85 12.54L42.85 12.54L42.85 12.54Q43.19 12.14 43.66 11.90L43.66 11.90L43.66 11.90Q44.13 11.66 44.90 11.40L44.90 11.40L44.90 11.40Q45.68 11.13 46.06 10.91L46.06 10.91L46.06 10.91Q46.44 10.68 46.44 10.30L46.44 10.30L46.44 9.44L46.44 9.44Q46.44 8.62 46.09 8.32L46.09 8.32L46.09 8.32Q45.75 8.02 45.14 8.02L45.14 8.02L45.14 8.02Q44.16 8.02 43.75 8.53L43.75 8.53L43.75 8.53Q44.03 8.60 44.22 8.82L44.22 8.82L44.22 8.82Q44.41 9.04 44.41 9.38L44.41 9.38L44.41 9.38Q44.41 9.73 44.18 9.93L44.18 9.93L44.18 9.93Q43.96 10.14 43.61 10.14L43.61 10.14L43.61 10.14Q43.22 10.14 43.02 9.89L43.02 9.89L43.02 9.89Q42.83 9.65 42.83 9.30L42.83 9.30L42.83 9.30Q42.83 8.96 42.99 8.74L42.99 8.74L42.99 8.74Q43.15 8.51 43.47 8.29L43.47 8.29L43.47 8.29Q43.81 8.05 44.32 7.90L44.32 7.90L44.32 7.90Q44.84 7.74 45.46 7.74L45.46 7.74L45.46 7.74Q46.55 7.74 47.11 8.26L47.11 8.26L47.11 8.26Q47.46 8.58 47.58 9.04L47.58 9.04L47.58 9.04Q47.70 9.49 47.70 10.23L47.70 10.23L47.70 14.13L47.70 14.13Q47.70 14.48 47.80 14.63L47.80 14.63L47.80 14.63Q47.89 14.78 48.13 14.78L48.13 14.78L48.13 14.78Q48.30 14.78 48.45 14.71L48.45 14.71L48.45 14.71Q48.59 14.63 48.76 14.49L48.76 14.49L48.92 14.73L48.92 14.73Q48.55 15.01 48.29 15.13L48.29 15.13L48.29 15.13Q48.03 15.25 47.64 15.25L47.64 15.25L47.64 15.25Q46.97 15.25 46.70 14.91L46.70 14.91L46.70 14.91Q46.44 14.57 46.44 14L46.44 14L46.44 14Q46.02 14.70 45.47 14.97L45.47 14.97L45.47 14.97Q44.93 15.25 44.24 15.25L44.24 15.25ZM44.86 14.69L44.86 14.69Q45.78 14.69 46.44 13.62L46.44 13.62L46.44 10.88L46.44 10.88Q46.31 11.07 46.09 11.20L46.09 11.20L46.09 11.20Q45.86 11.33 45.40 11.54L45.40 11.54L45.40 11.54Q44.87 11.76 44.54 11.96L44.54 11.96L44.54 11.96Q44.21 12.17 43.97 12.52L43.97 12.52L43.97 12.52Q43.74 12.87 43.74 13.41L43.74 13.41L43.74 13.41Q43.74 14.04 44.04 14.36L44.04 14.36L44.04 14.36Q44.35 14.69 44.86 14.69L44.86 14.69ZM60.35 13.97L60.35 13.97Q60.69 14.84 61.32 14.87L61.32 14.87L61.32 15.15L61.32 15.15Q60.76 15.11 59.82 15.11L59.82 15.11L59.82 15.11Q58.62 15.11 58.03 15.15L58.03 15.15L58.03 14.87L58.03 14.87Q58.56 14.84 58.79 14.73L58.79 14.73L58.79 14.73Q59.02 14.63 59.02 14.35L59.02 14.35L59.02 14.35Q59.02 14.11 58.86 13.69L58.86 13.69L58.00 11.40L54.61 11.40L54.04 12.88L54.04 12.88Q53.76 13.64 53.76 14.03L53.76 14.03L53.76 14.03Q53.76 14.46 54.06 14.66L54.06 14.66L54.06 14.66Q54.36 14.85 54.98 14.87L54.98 14.87L54.98 15.15L54.98 15.15Q54.18 15.11 53.37 15.11L53.37 15.11L53.37 15.11Q52.74 15.11 52.32 15.15L52.32 15.15L52.32 14.87L52.32 14.87Q53.02 14.70 53.42 13.65L53.42 13.65L56.71 5.17L56.94 5.17L60.35 13.97ZM54.73 11.12L57.89 11.12L56.32 6.93L54.73 11.12ZM67.09 7.98L67.09 7.98Q67.70 7.98 68.15 7.94L68.15 7.94L68.15 8.22L68.15 8.22Q67.87 8.25 67.66 8.47L67.66 8.47L67.66 8.47Q67.44 8.69 67.24 9.20L67.24 9.20L64.95 15.22L64.47 16.44L64.47 16.44Q64.20 17.12 63.87 17.42L63.87 17.42L63.87 17.42Q63.66 17.61 63.36 17.70L63.36 17.70L63.36 17.70Q63.07 17.78 62.78 17.78L62.78 17.78L62.78 17.78Q62.36 17.78 62.09 17.56L62.09 17.56L62.09 17.56Q61.82 17.33 61.82 16.94L61.82 16.94L61.82 16.94Q61.82 16.60 62.02 16.40L62.02 16.40L62.02 16.40Q62.22 16.20 62.57 16.20L62.57 16.20L62.57 16.20Q62.87 16.20 63.08 16.37L63.08 16.37L63.08 16.37Q63.28 16.55 63.28 16.86L63.28 16.86L63.28 16.86Q63.28 17.28 62.90 17.49L62.90 17.49L62.90 17.49Q62.93 17.50 62.99 17.50L62.99 17.50L62.99 17.50Q63.76 17.50 64.18 16.41L64.18 16.41L64.67 15.13L62.13 9.02L62.13 9.02Q61.89 8.54 61.66 8.39L61.66 8.39L61.66 8.39Q61.42 8.23 61.18 8.23L61.18 8.23L61.18 7.94L61.18 7.94Q61.78 8.02 62.55 8.02L62.55 8.02L62.55 8.02Q63.25 8.02 64.37 7.94L64.37 7.94L64.37 8.23L64.37 8.23Q63.87 8.23 63.64 8.32L63.64 8.32L63.64 8.32Q63.41 8.40 63.41 8.72L63.41 8.72L63.41 8.72Q63.41 9.02 63.57 9.41L63.57 9.41L65.25 13.58L66.81 9.53L66.81 9.53Q66.96 9.11 66.96 8.89L66.96 8.89L66.96 8.89Q66.96 8.57 66.71 8.41L66.71 8.41L66.71 8.41Q66.46 8.26 65.91 8.22L65.91 8.22L65.91 7.94L65.91 7.94Q66.65 7.98 67.09 7.98L67.09 7.98ZM71.20 7.74L71.20 7.74Q71.71 7.74 72.10 7.90L72.10 7.90L72.10 7.90Q72.49 8.05 72.73 8.26L72.73 8.26L72.73 8.26Q72.88 8.37 72.98 8.37L72.98 8.37L72.98 8.37Q73.23 8.37 73.29 7.76L73.29 7.76L73.61 7.76L73.61 7.76Q73.56 8.44 73.56 10.14L73.56 10.14L73.23 10.14L73.23 10.14Q73.08 9.21 72.64 8.61L72.64 8.61L72.64 8.61Q72.20 8.01 71.33 8.01L71.33 8.01L71.33 8.01Q70.83 8.01 70.50 8.29L70.50 8.29L70.50 8.29Q70.18 8.58 70.18 9.09L70.18 9.09L70.18 9.09Q70.18 9.58 70.52 9.90L70.52 9.90L70.52 9.90Q70.85 10.23 71.60 10.70L71.60 10.70L71.60 10.70Q71.72 10.77 71.97 10.93L71.97 10.93L71.97 10.93Q72.62 11.35 73.01 11.68L73.01 11.68L73.01 11.68Q73.40 12.00 73.65 12.42L73.65 12.42L73.65 12.42Q73.89 12.84 73.89 13.38L73.89 13.38L73.89 13.38Q73.89 14.31 73.20 14.83L73.20 14.83L73.20 14.83Q72.51 15.34 71.50 15.34L71.50 15.34L71.50 15.34Q70.87 15.34 70.39 15.15L70.39 15.15L70.39 15.15Q70.08 14.99 69.82 14.77L69.82 14.77L69.82 14.77Q69.76 14.71 69.69 14.71L69.69 14.71L69.69 14.71Q69.59 14.71 69.52 14.85L69.52 14.85L69.52 14.85Q69.44 14.99 69.40 15.25L69.40 15.25L69.08 15.25L69.08 15.25Q69.13 14.45 69.13 12.45L69.13 12.45L69.45 12.45L69.45 12.45Q69.61 13.76 70.01 14.41L70.01 14.41L70.01 14.41Q70.42 15.06 71.40 15.06L71.40 15.06L71.40 15.06Q71.89 15.06 72.27 14.74L72.27 14.74L72.27 14.74Q72.65 14.42 72.65 13.73L72.65 13.73L72.65 13.73Q72.65 13.19 72.28 12.81L72.28 12.81L72.28 12.81Q71.90 12.43 71.06 11.90L71.06 11.90L71.06 11.90Q70.38 11.47 70.01 11.19L70.01 11.19L70.01 11.19Q69.64 10.91 69.38 10.50L69.38 10.50L69.38 10.50Q69.13 10.09 69.13 9.55L69.13 9.55L69.13 9.55Q69.13 8.67 69.72 8.20L69.72 8.20L69.72 8.20Q70.31 7.74 71.20 7.74L71.20 7.74ZM77.15 4.19L77.15 9.42L77.15 9.42Q77.50 8.54 78.13 8.14L78.13 8.14L78.13 8.14Q78.75 7.74 79.53 7.74L79.53 7.74L79.53 7.74Q80.51 7.74 81.02 8.27L81.02 8.27L81.02 8.27Q81.28 8.55 81.40 8.97L81.40 8.97L81.40 8.97Q81.51 9.39 81.51 10.11L81.51 10.11L81.51 13.85L81.51 13.85Q81.51 14.42 81.75 14.64L81.75 14.64L81.75 14.64Q81.98 14.85 82.57 14.85L82.57 14.85L82.57 15.15L82.57 15.15Q81.28 15.09 80.89 15.09L80.89 15.09L80.89 15.09Q80.50 15.09 79.32 15.15L79.32 15.15L79.32 14.85L79.32 14.85Q79.84 14.85 80.05 14.64L80.05 14.64L80.05 14.64Q80.25 14.42 80.25 13.85L80.25 13.85L80.25 9.80L80.25 9.80Q80.25 9.02 80.02 8.60L80.02 8.60L80.02 8.60Q79.80 8.19 79.11 8.19L79.11 8.19L79.11 8.19Q78.54 8.19 78.10 8.51L78.10 8.51L78.10 8.51Q77.66 8.83 77.41 9.41L77.41 9.41L77.41 9.41Q77.15 10.00 77.15 10.72L77.15 10.72L77.15 13.85L77.15 13.85Q77.15 14.42 77.36 14.64L77.36 14.64L77.36 14.64Q77.56 14.85 78.08 14.85L78.08 14.85L78.08 15.15L78.08 15.15Q76.90 15.09 76.51 15.09L76.51 15.09L76.51 15.09Q76.12 15.09 74.83 15.15L74.83 15.15L74.83 14.85L74.83 14.85Q75.42 14.85 75.66 14.64L75.66 14.64L75.66 14.64Q75.89 14.42 75.89 13.85L75.89 13.85L75.89 5.87L75.89 5.87Q75.89 5.22 75.66 4.93L75.66 4.93L75.66 4.93Q75.42 4.63 74.83 4.63L74.83 4.63L74.83 4.34L74.83 4.34Q75.28 4.38 75.70 4.38L75.70 4.38L75.70 4.38Q76.58 4.38 77.15 4.19L77.15 4.19ZM84.78 4.44L84.78 4.44Q85.15 4.44 85.41 4.70L85.41 4.70L85.41 4.70Q85.68 4.97 85.68 5.33L85.68 5.33L85.68 5.33Q85.68 5.70 85.41 5.96L85.41 5.96L85.41 5.96Q85.15 6.23 84.78 6.23L84.78 6.23L84.78 6.23Q84.42 6.23 84.15 5.96L84.15 5.96L84.15 5.96Q83.89 5.70 83.89 5.33L83.89 5.33L83.89 5.33Q83.89 4.97 84.15 4.70L84.15 4.70L84.15 4.70Q84.42 4.44 84.78 4.44L84.78 4.44ZM85.51 7.78L85.51 13.85L85.51 13.85Q85.51 14.42 85.75 14.64L85.75 14.64L85.75 14.64Q85.99 14.85 86.58 14.85L86.58 14.85L86.58 15.15L86.58 15.15Q85.29 15.09 84.88 15.09L84.88 15.09L84.88 15.09Q84.48 15.09 83.19 15.15L83.19 15.15L83.19 14.85L83.19 14.85Q83.78 14.85 84.01 14.64L84.01 14.64L84.01 14.64Q84.25 14.42 84.25 13.85L84.25 13.85L84.25 9.46L84.25 9.46Q84.25 8.82 84.01 8.53L84.01 8.53L84.01 8.53Q83.78 8.23 83.19 8.23L83.19 8.23L83.19 7.94L83.19 7.94Q83.64 7.98 84.06 7.98L84.06 7.98L84.06 7.98Q84.94 7.98 85.51 7.78L85.51 7.78Z"></path></g><defs data-v-fde0c5aa=""><linearGradient data-v-fde0c5aa="" gradientTransform="rotate(25)" id="21e58489-e149-4270-a8b1-6e66aa502e6f" x1="0%" y1="0%" x2="100%" y2="0%"><stop data-v-fde0c5aa="" offset="0%" stop-color="#006678" stop-opacity="1"></stop><stop data-v-fde0c5aa="" offset="100%" stop-color="#4FA8FF" stop-opacity="1"></stop></linearGradient></defs><g data-v-fde0c5aa="" id="c96f73dc-1f3e-432b-8243-653114973c1f" stroke="none" fill="url(#21e58489-e149-4270-a8b1-6e66aa502e6f)" transform="matrix(2.576866869120103,0,0,2.576866869120103,108.77013009407835,79.15519514111753)"><path d="M4.029 14.362L14.362 4.028l.707.707L4.736 15.07zM17.135 27.47L27.47 17.135l.707.707-10.333 10.333zM4.029 17.841l.707-.707 10.333 10.334-.707.707zM17.135 4.735l.708-.707L28.176 14.36l-.707.707z"></path><g><path d="M16 1.414l1.683 1.683L16 4.779l-1.683-1.683L16 1.414M16 0l-3.097 3.097L16 6.194l3.097-3.097L16 0zM16 27.221l1.683 1.683L16 30.586l-1.683-1.683L16 27.221m0-1.415l-3.097 3.097L16 32l3.097-3.097L16 25.806zM3.097 14.317L4.779 16l-1.683 1.683L1.414 16l1.683-1.683m0-1.414L0 16l3.097 3.097L6.194 16l-3.097-3.097zM28.903 14.317L30.586 16l-1.683 1.683L27.221 16l1.682-1.683m0-1.414L25.806 16l3.097 3.097L32 16l-3.097-3.097z"></path></g></g><!----></svg>